<?xml version="1.0" encoding="UTF-8"?> <svg xmlns="http://www.w3.org/2000/svg" id="Capa_1" data-name="Capa 1" viewBox="0 0 147.94 105.44"><defs><style>.cls-1{fill:#f8d8ca;}.cls-2{fill:#668098;}.cls-3{fill:#f4b499;}</style></defs><title>users</title><circle class="cls-1" cx="101.44" cy="28.49" r="27.68"></circle><path class="cls-1" d="M5533.6,322.33H5623s-14.27-49-45-49S5533.6,322.33,5533.6,322.33Z" transform="translate(-5475.07 -216.9)"></path><circle class="cls-2" cx="42.91" cy="28.49" r="27.68"></circle><path class="cls-3" d="M5562.08,261.59a2.4,2.4,0,0,1-1.61-3h0a2.42,2.42,0,0,1,3-1.61h0a2.42,2.42,0,0,1,1.61,3h0a2.43,2.43,0,0,1-2.32,1.74h0A1.82,1.82,0,0,1,5562.08,261.59Zm7.92-1.68a2.42,2.42,0,0,1,1.51-3.06h0a2.43,2.43,0,0,1,3.06,1.51h0a2.43,2.43,0,0,1-1.51,3.06h0a2.22,2.22,0,0,1-.77.13h0A2.38,2.38,0,0,1,5570,259.91Zm-16.94-4.57a2.45,2.45,0,0,1,.45-3.41h0a2.42,2.42,0,0,1,3.38.48v0a2.46,2.46,0,0,1-.45,3.42h0a2.46,2.46,0,0,1-1.45.48h0A2.44,2.44,0,0,1,5553.06,255.33Zm25.45,0.1a2.41,2.41,0,0,1-.55-3.35h0a2.39,2.39,0,0,1,3.38-.55h0a2.41,2.41,0,0,1,.55,3.35h0a2.38,2.38,0,0,1-2,1h0A2.39,2.39,0,0,1,5578.51,255.43Zm3.12-9.06a2.41,2.41,0,0,1-.55-3.35h0a2.39,2.39,0,0,1,3.38-.55h0a2.41,2.41,0,0,1,.55,3.35h0a2.38,2.38,0,0,1-2,1h0A2.39,2.39,0,0,1,5581.63,246.37ZM5549.39,245h0a2.41,2.41,0,0,1,2.35-2.48h0a2.41,2.41,0,0,1,2.48,2.35h0a2.44,2.44,0,0,1-2.35,2.48h-0.06A2.4,2.4,0,0,1,5549.39,245Zm3.7-7.18a2.38,2.38,0,0,1-.64-3.35h0a2.4,2.4,0,0,1,3.35-.68h0a2.42,2.42,0,0,1,.64,3.35v0a2.43,2.43,0,0,1-2,1h0A2.56,2.56,0,0,1,5553.09,237.78Zm24.38-1.61a2.41,2.41,0,0,1,.36-3.38h0a2.41,2.41,0,0,1,3.41.32h0a2.44,2.44,0,0,1-.35,3.41h0a2.49,2.49,0,0,1-1.51.55h0A2.5,2.5,0,0,1,5577.48,236.17Zm-17.85-5.45a2.47,2.47,0,0,1,1.42-3.12h0a2.46,2.46,0,0,1,3.12,1.45h0a2.41,2.41,0,0,1-1.42,3.09h0a2.81,2.81,0,0,1-.84.16h0A2.44,2.44,0,0,1,5559.63,230.72Zm11.15,1.06a2.42,2.42,0,0,1-1.71-3h0a2.42,2.42,0,0,1,3-1.71h0a2.42,2.42,0,0,1,1.71,3h0a2.41,2.41,0,0,1-2.35,1.77h0A2,2,0,0,1,5570.78,231.79Z" transform="translate(-5475.07 -216.9)"></path><path class="cls-3" d="M5572.7,271.09a1.21,1.21,0,0,1,.91-1.46h0a1.22,1.22,0,0,1,1.45.88h0a1.24,1.24,0,0,1-.88,1.45h0l-0.16,0h0A1.22,1.22,0,0,1,5572.7,271.09Zm-8.56,1.46a1.21,1.21,0,0,1-1.05-1.35h0a1.21,1.21,0,0,1,1.35-1.05h0a1.21,1.21,0,0,1,1.05,1.35h0a1.2,1.2,0,0,1-1.06,1.05h0A0.91,0.91,0,0,1,5564.14,272.55Zm17.55-5a1.19,1.19,0,0,1,.31-1.69v0a1.22,1.22,0,0,1,1.68.31h0a1.23,1.23,0,0,1-.34,1.69h0a1.05,1.05,0,0,1-.53.19h0A1.14,1.14,0,0,1,5581.69,267.58Zm-27.13,2a1.2,1.2,0,0,1-.5-1.63h0a1.2,1.2,0,0,1,1.63-.5h0a1.19,1.19,0,0,1,.5,1.63h0a1.24,1.24,0,0,1-.94.62h0A1.34,1.34,0,0,1,5554.56,269.55Zm34.26-8.4a1.22,1.22,0,0,1-.28-1.69h0a1.22,1.22,0,0,1,1.69-.28h0a1.21,1.21,0,0,1,.28,1.69h0a1.17,1.17,0,0,1-.86.48h0A1.31,1.31,0,0,1,5588.81,261.15Zm-42.17,2.21a1.2,1.2,0,0,1,.11-1.7h0a1.2,1.2,0,0,1,1.7.11h0a1.2,1.2,0,0,1-.11,1.69h0a1.1,1.1,0,0,1-.68.3h0A1.23,1.23,0,0,1,5546.64,263.36Zm46.61-10.74a1.18,1.18,0,0,1-.84-1.47h0a1.21,1.21,0,0,1,1.46-.87h0a1.22,1.22,0,0,1,.87,1.46h0v0h0a1.26,1.26,0,0,1-1,.89h0A1.16,1.16,0,0,1,5593.25,252.61Zm-51.86,2.2a1.21,1.21,0,0,1,.71-1.57h0a1.18,1.18,0,0,1,1.56.68h0a1.23,1.23,0,0,1-.71,1.57h0a0.91,0.91,0,0,1-.28.06h0A1.25,1.25,0,0,1,5541.4,254.81Zm51.67-12.8a1.22,1.22,0,0,1,1.09-1.35h0a1.2,1.2,0,0,1,1.31,1.09h0a1.19,1.19,0,0,1-1.06,1.31h0A1.22,1.22,0,0,1,5593.07,242Zm-52.3,4.13a1.2,1.2,0,0,1-1.23-1.2h0a1.2,1.2,0,0,1,1.2-1.23h0a1.17,1.17,0,0,1,1.2,1.2h0a1.17,1.17,0,0,1-1.07,1.22h-0.1Zm51.53-8.29a1.21,1.21,0,0,1,.81-1.51h0a1.26,1.26,0,0,1,1.51.85h0a1.21,1.21,0,0,1-.85,1.48h0a0.56,0.56,0,0,1-.22.06h0A1.17,1.17,0,0,1,5592.3,237.85ZM5542,236.58a1.21,1.21,0,0,1-.71-1.54h0a1.19,1.19,0,0,1,1.54-.71h0a1.2,1.2,0,0,1,.71,1.54h0a1.17,1.17,0,0,1-1,.78h0A1.16,1.16,0,0,1,5542,236.58Zm46.33-7a1.25,1.25,0,0,1,.27-1.71h0a1.21,1.21,0,0,1,1.68.27h0a1.2,1.2,0,0,1-.24,1.68h0a1.12,1.12,0,0,1-.59.22h0A1.22,1.22,0,0,1,5588.28,229.59Zm-41.82-1.49a1.18,1.18,0,0,1-.12-1.7h0a1.21,1.21,0,0,1,1.7-.15h0a1.22,1.22,0,0,1,.12,1.71h0a1.2,1.2,0,0,1-.8.41h0A1.24,1.24,0,0,1,5546.47,228.1Zm35.18-4.83a1.2,1.2,0,0,1-.37-1.68h0a1.19,1.19,0,0,1,1.68-.34h0a1.18,1.18,0,0,1,.34,1.65h0a1.19,1.19,0,0,1-.88.55h0A1.27,1.27,0,0,1,5581.65,223.26Zm-28-1.56a1.21,1.21,0,0,1,.47-1.64h0a1.21,1.21,0,0,1,1.64.47h0a1.2,1.2,0,0,1-.47,1.64h0a1.29,1.29,0,0,1-.44.14h0A1.18,1.18,0,0,1,5553.66,221.7Zm19.54-2a1.18,1.18,0,0,1-.93-1.42h0a1.24,1.24,0,0,1,1.46-.93h0a1.22,1.22,0,0,1,.9,1.46h0a1.17,1.17,0,0,1-1,.92h0A0.84,0.84,0,0,1,5573.2,219.66Zm-10.54-1.38a1.2,1.2,0,0,1,1-1.37h0a1.22,1.22,0,0,1,1.37,1h0a1.24,1.24,0,0,1-1.05,1.37h0A1.18,1.18,0,0,1,5562.66,218.28Z" transform="translate(-5475.07 -216.9)"></path><path class="cls-3" d="M5563.08,268.19a1.56,1.56,0,0,1-1.26-1.87h0a1.56,1.56,0,0,1,1.87-1.29v0a1.64,1.64,0,0,1,1.29,1.9h0a1.64,1.64,0,0,1-1.58,1.32h0C5563.3,268.22,5563.21,268.19,5563.08,268.19Zm8.31-1.51a1.66,1.66,0,0,1,1.16-2h0a1.6,1.6,0,0,1,2,1.16h0a1.61,1.61,0,0,1-1.13,2h0a1.51,1.51,0,0,1-.39.07h0A1.64,1.64,0,0,1,5571.39,266.68Zm-17.75-2.54a1.6,1.6,0,0,1-.35-2.26h0a1.6,1.6,0,0,1,2.22-.36h0a1.61,1.61,0,0,1,.39,2.26h0a1.68,1.68,0,0,1-1.32.68h0A1.73,1.73,0,0,1,5553.64,264.13Zm26.61-1.19a1.63,1.63,0,0,1,.22-2.29h0a1.62,1.62,0,0,1,2.26.23h0a1.59,1.59,0,0,1-.19,2.25h0a1.64,1.64,0,0,1-1,.39h0A1.6,1.6,0,0,1,5580.25,262.94Zm-33.44-6.47a1.6,1.6,0,0,1,.61-2.19h0a1.6,1.6,0,0,1,2.19.61h0a1.62,1.62,0,0,1-.61,2.19h0a1.75,1.75,0,0,1-.81.2h0A1.6,1.6,0,0,1,5546.81,256.46Zm39.88-.68a1.62,1.62,0,0,1-.77-2.16h0a1.58,1.58,0,0,1,2.13-.77h0a1.62,1.62,0,0,1,.77,2.16h0a1.56,1.56,0,0,1-1.45.9h0A1.61,1.61,0,0,1,5586.69,255.79Zm1.81-10.27a1.62,1.62,0,0,1-.77-2.16h0a1.58,1.58,0,0,1,2.13-.77h0a1.62,1.62,0,0,1,.77,2.16h0a1.56,1.56,0,0,1-1.45.9h0A1.61,1.61,0,0,1,5588.5,245.52Zm-44.62,1.09a1.63,1.63,0,0,1,1.48-1.74h0a1.63,1.63,0,0,1,1.74,1.52h0a1.64,1.64,0,0,1-1.51,1.71h-0.1A1.61,1.61,0,0,1,5543.88,246.6Zm2.45-8.12a1.57,1.57,0,0,1-.9-2.06h0a1.58,1.58,0,0,1,2.06-.93h0a1.62,1.62,0,0,1,.93,2.09h0a1.63,1.63,0,0,1-1.51,1h0A1.25,1.25,0,0,1,5546.33,238.49Zm38.2-4.64a1.61,1.61,0,0,1,.48-2.22h0a1.58,1.58,0,0,1,2.22.45h0a1.62,1.62,0,0,1-.48,2.22h0a1.46,1.46,0,0,1-.87.26h0A1.68,1.68,0,0,1,5584.53,233.85Zm-33.47-3.7a1.58,1.58,0,0,1,.06-2.26h0a1.59,1.59,0,0,1,2.29,0h0a1.63,1.63,0,0,1-.06,2.29h0a1.6,1.6,0,0,1-1.1.45h0A1.62,1.62,0,0,1,5551.06,230.15Zm27.12-2.51a1.6,1.6,0,0,1-.52-2.22h0a1.58,1.58,0,0,1,2.22-.51h0a1.63,1.63,0,0,1,.52,2.22h0a1.64,1.64,0,0,1-1.39.74h0A1.57,1.57,0,0,1,5578.19,227.63Zm-19.26-3a1.6,1.6,0,0,1,1-2h0v0h0a1.64,1.64,0,0,1,2,1h0a1.57,1.57,0,0,1-1,2h0a1.36,1.36,0,0,1-.52.1h0A1.62,1.62,0,0,1,5558.92,224.6Zm10.89,0.1a1.57,1.57,0,0,1-1.42-1.77h0a1.57,1.57,0,0,1,1.77-1.42h0a1.6,1.6,0,0,1,1.42,1.77h0a1.63,1.63,0,0,1-1.61,1.45h0A1.37,1.37,0,0,0,5569.81,224.7Z" transform="translate(-5475.07 -216.9)"></path><path class="cls-3" d="M5567,252.86a3.19,3.19,0,0,1,2.06-4h0a3.2,3.2,0,0,1,4.06,2.06h0a3.22,3.22,0,0,1-2.09,4.06h0a3.35,3.35,0,0,1-1,.16h0A3.2,3.2,0,0,1,5567,252.86Zm-8.15-1.93a3.2,3.2,0,0,1,.74-4.48h0a3.24,3.24,0,0,1,4.51.71h0a3.24,3.24,0,0,1-.74,4.51h0a3.17,3.17,0,0,1-1.87.61h0A3.27,3.27,0,0,1,5558.82,250.92Zm13.31-6.35h0a3.23,3.23,0,0,1,3.22-3.22h0a3.23,3.23,0,0,1,3.22,3.22h0a3.23,3.23,0,0,1-3.22,3.22h0A3.23,3.23,0,0,1,5572.13,244.58Zm-12.53-2a3.19,3.19,0,0,1-.64-4.48h0a3.2,3.2,0,0,1,4.51-.68h0a3.23,3.23,0,0,1,.64,4.51h0a3.17,3.17,0,0,1-2.58,1.29h0A3.09,3.09,0,0,1,5559.6,242.58Zm9.53-2.22a3.17,3.17,0,0,1-2-4.06h0a3.22,3.22,0,0,1,4.09-2h0a3.23,3.23,0,0,1,2,4.09h0a3.2,3.2,0,0,1-3,2.19h0A2.79,2.79,0,0,1,5569.13,240.36Z" transform="translate(-5475.07 -216.9)"></path><path class="cls-2" d="M5475.07,322.33h89.42s-14.27-49-45-49S5475.07,322.33,5475.07,322.33Z" transform="translate(-5475.07 -216.9)"></path><path class="cls-3" d="M5612.85,319.92h0a1.21,1.21,0,0,1,.81-1.52h0a1.19,1.19,0,0,1,1.51.77h0a1.21,1.21,0,0,1-.81,1.51h0a1.09,1.09,0,0,1-.35.07h0A1.21,1.21,0,0,1,5612.85,319.92Zm-91.39-2.71a1.2,1.2,0,0,1-.58-1.61h0a1.23,1.23,0,0,1,1.61-.58h0a1.2,1.2,0,0,1,.58,1.61h0a1.19,1.19,0,0,1-1.1.71h0A1,1,0,0,1,5521.46,317.22Zm87.91-6.22h0a1.17,1.17,0,0,1,.61-1.58h0a1.23,1.23,0,0,1,1.61.58v0a1.21,1.21,0,0,1-.64,1.58h0a1.32,1.32,0,0,1-.48.09h0A1.19,1.19,0,0,1,5609.37,311Zm-83.5-2.42a1.21,1.21,0,0,1-.45-1.64h0a1.21,1.21,0,0,1,1.64-.45h0a1.22,1.22,0,0,1,.45,1.65h0a1.24,1.24,0,0,1-1.06.61h0A1,1,0,0,1,5525.87,308.58Zm79.24-6.15a1.21,1.21,0,0,1,.48-1.64h0a1.18,1.18,0,0,1,1.64.45h0a1.22,1.22,0,0,1-.48,1.65h0a1.34,1.34,0,0,1-.58.16h0A1.25,1.25,0,0,1,5605.11,302.43Zm-74.19-2.09a1.23,1.23,0,0,1-.32-1.68h0a1.23,1.23,0,0,1,1.68-.32h0a1.17,1.17,0,0,1,.32,1.67h0a1.18,1.18,0,0,1-1,.55h0A1.3,1.3,0,0,1,5530.93,300.34Zm69.19-6.06a1.2,1.2,0,0,1,.29-1.68h0a1.19,1.19,0,0,1,1.68.29h0a1.23,1.23,0,0,1-.29,1.71h0a1.38,1.38,0,0,1-.71.19h0A1.1,1.1,0,0,1,5600.12,294.28Zm-63.46-1.74a1.16,1.16,0,0,1-.13-1.68v0a1.22,1.22,0,0,1,1.71-.13h0a1.19,1.19,0,0,1,.13,1.71h0a1.16,1.16,0,0,1-.93.42h0A1.23,1.23,0,0,1,5536.66,292.54Zm57.53-5.67v0h0a1.22,1.22,0,0,1,.06-1.71h0a1.22,1.22,0,0,1,1.71.1h0a1.18,1.18,0,0,1-.06,1.68h0a1.3,1.3,0,0,1-.84.35h0A1.15,1.15,0,0,1,5594.19,286.87Zm-51-1.42a1.22,1.22,0,0,1,.06-1.71h0a1.22,1.22,0,0,1,1.71.07h0a1.21,1.21,0,0,1-.06,1.71h0a1.12,1.12,0,0,1-.81.32h0A1.22,1.22,0,0,1,5543.23,285.46Zm43.94-4.9a1.22,1.22,0,0,1-.26-1.67h0a1.2,1.2,0,0,1,1.68-.29h0a1.23,1.23,0,0,1,.29,1.71h0a1.25,1.25,0,0,1-1,.48h0A1.23,1.23,0,0,1,5587.17,280.56Zm-36.43-1.16a1.24,1.24,0,0,1,.39-1.68h0a1.21,1.21,0,0,1,1.68.39h0a1.17,1.17,0,0,1-.39,1.64h0a1.16,1.16,0,0,1-.64.2h0A1.29,1.29,0,0,1,5550.74,279.4Zm28.28-3.26a1.21,1.21,0,0,1-.74-1.54h0a1.23,1.23,0,0,1,1.58-.74h0a1.22,1.22,0,0,1,.71,1.55h0a1.21,1.21,0,0,1-1.16.81h0A0.8,0.8,0,0,1,5579,276.14ZM5559.34,275a1.21,1.21,0,0,1,.81-1.51h0a1.24,1.24,0,0,1,1.51.81h0a1.24,1.24,0,0,1-.81,1.51h0a1.36,1.36,0,0,1-.36,0h0A1.21,1.21,0,0,1,5559.34,275Zm9.44-1.77a1.22,1.22,0,0,1,1.22-1.19h0a1.2,1.2,0,0,1,1.19,1.22h0a1.17,1.17,0,0,1-1.23,1.16h0v0h0A1.26,1.26,0,0,1,5568.78,273.25Z" transform="translate(-5475.07 -216.9)"></path><path class="cls-3" d="M5606.31,319.89a1.63,1.63,0,0,1,.9-2.09h0a1.62,1.62,0,0,1,2.1.93h0a1.62,1.62,0,0,1-.93,2.09h0a1.6,1.6,0,0,1-.55.1h0A1.63,1.63,0,0,1,5606.31,319.89Zm-75.54-6.41a1.61,1.61,0,0,1-.51-2.22h0a1.64,1.64,0,0,1,2.22-.52h0A1.61,1.61,0,0,1,5533,313h0a1.63,1.63,0,0,1-1.38.77h0A1.8,1.8,0,0,1,5530.77,313.48Zm71.48-2.19a1.59,1.59,0,0,1,.64-2.16h0a1.6,1.6,0,0,1,2.19.64h0a1.61,1.61,0,0,1-.68,2.19h0a1.5,1.5,0,0,1-.74.2h0A1.61,1.61,0,0,1,5602.25,311.29Zm-66.16-5.93a1.59,1.59,0,0,1-.36-2.22h0a1.61,1.61,0,0,1,2.26-.36h0a1.6,1.6,0,0,1,.35,2.26h0a1.65,1.65,0,0,1-1.32.64h0A1.49,1.49,0,0,1,5536.08,305.36Zm61.27-2.22a1.57,1.57,0,0,1,.42-2.22h0a1.61,1.61,0,0,1,2.25.42h0a1.65,1.65,0,0,1-.45,2.26h0a1.74,1.74,0,0,1-.9.26h0A1.58,1.58,0,0,1,5597.35,303.14Zm-55.24-5.35a1.59,1.59,0,0,1-.1-2.26h0a1.6,1.6,0,0,1,2.29-.1h0a1.62,1.62,0,0,1,.06,2.29h0a1.61,1.61,0,0,1-1.16.52h0A1.6,1.6,0,0,1,5542.11,297.79Zm49.45-2.13h0a1.59,1.59,0,0,1,.13-2.26h0a1.62,1.62,0,0,1,2.29.1v0a1.62,1.62,0,0,1-.13,2.26h0a1.78,1.78,0,0,1-1.09.42h0A1.66,1.66,0,0,1,5591.55,295.67ZM5549,291a1.59,1.59,0,0,1,.26-2.26h0a1.59,1.59,0,0,1,2.25.26h0a1.59,1.59,0,0,1-.26,2.26h0a1.47,1.47,0,0,1-1,.36h0A1.54,1.54,0,0,1,5549,291Zm35.72-1.67v0h0a1.57,1.57,0,0,1-.35-2.22h0a1.64,1.64,0,0,1,2.26-.36h0A1.64,1.64,0,0,1,5587,289h0a1.65,1.65,0,0,1-1.32.64h0A1.61,1.61,0,0,1,5584.72,289.35ZM5557,285.58a1.62,1.62,0,0,1,.77-2.16h0a1.63,1.63,0,0,1,2.16.81h0a1.58,1.58,0,0,1-.77,2.12h0a1.75,1.75,0,0,1-.71.16h0A1.66,1.66,0,0,1,5557,285.58Zm19.71-.55h0a1.6,1.6,0,0,1-1-2h0a1.6,1.6,0,0,1,2-1h0a1.62,1.62,0,0,1,1,2.06h0a1.63,1.63,0,0,1-1.51,1.09h0A1.5,1.5,0,0,1,5576.67,285Zm-10.6-2.54a1.6,1.6,0,0,1,1.48-1.74h0a1.61,1.61,0,0,1,1.74,1.45h0a1.6,1.6,0,0,1-1.48,1.74h-0.13A1.59,1.59,0,0,1,5566.07,282.49Z" transform="translate(-5475.07 -216.9)"></path><path class="cls-3" d="M5599.8,320a2,2,0,0,1,.9-2.67h0a2,2,0,0,1,2.71.87h0a2,2,0,0,1-.9,2.71h0a1.79,1.79,0,0,1-.9.22h0A2,2,0,0,1,5599.8,320Zm-64.36-2a2,2,0,0,1-.52-2.8h0a2,2,0,0,1,2.8-.52h0a2,2,0,0,1,.52,2.8h0a2.08,2.08,0,0,1-1.68.87h0A2.1,2.1,0,0,1,5535.44,318Zm59.5-6.06a2,2,0,0,1,.52-2.8h0a2,2,0,0,1,2.8.55h0a2,2,0,0,1-.52,2.77h0a2,2,0,0,1-1.16.35h0A1.94,1.94,0,0,1,5594.93,311.9Zm-53.79-1.77a2,2,0,0,1-.22-2.84h0a2,2,0,0,1,2.83-.25h0a2,2,0,0,1,.22,2.83h0a2,2,0,0,1-1.55.74h0A2,2,0,0,1,5541.14,310.13Zm48-5.64a2,2,0,0,1,.16-2.87h0a2,2,0,0,1,2.84.16h0a2,2,0,0,1-.16,2.87h0a2.09,2.09,0,0,1-1.32.48h0A2,2,0,0,1,5589.14,304.49Zm-41.52-1.58a2,2,0,0,1,.13-2.83h0a2.06,2.06,0,0,1,2.87.09h0a2.07,2.07,0,0,1-.1,2.87h0a2.07,2.07,0,0,1-1.39.52h0A2,2,0,0,1,5547.61,302.91Zm34.76-4.77h0a2,2,0,0,1-.42-2.8h0a2,2,0,0,1,2.83-.42h0a2,2,0,0,1,.39,2.83h0a2,2,0,0,1-1.61.81h0A1.86,1.86,0,0,1,5582.37,298.15ZM5555,296.66a2,2,0,0,1,.61-2.77h0a2,2,0,0,1,2.77.64h0a2,2,0,0,1-.61,2.77h0a2.21,2.21,0,0,1-1.09.29h0A1.94,1.94,0,0,1,5555,296.66Zm19.46-2.64a2,2,0,0,1-1.35-2.51h0a2,2,0,0,1,2.51-1.35h0a2,2,0,0,1,1.35,2.51h0a2,2,0,0,1-1.93,1.42h0A3.62,3.62,0,0,1,5574.48,294Zm-10.92-1.81a2.05,2.05,0,0,1,1.51-2.42h0a2,2,0,0,1,2.42,1.51h0a2,2,0,0,1-1.51,2.42h0a2,2,0,0,1-.45,0h0A2,2,0,0,1,5563.56,292.22Z" transform="translate(-5475.07 -216.9)"></path><path class="cls-3" d="M5594,320.38v0h0a2.41,2.41,0,0,1,.52-3.38h0a2.39,2.39,0,0,1,3.38.52h0a2.41,2.41,0,0,1-.51,3.35h0a2.36,2.36,0,0,1-1.42.48h0A2.47,2.47,0,0,1,5594,320.38Zm-5.91-.13v0h0a2.41,2.41,0,0,1,.52-3.38h0a2.39,2.39,0,0,1,3.38.52h0a2.41,2.41,0,0,1-.51,3.35h0a2.36,2.36,0,0,1-1.42.48h0A2.47,2.47,0,0,1,5588.08,320.24Zm-41.89-6a2.4,2.4,0,0,1,.13-3.41h0a2.4,2.4,0,0,1,3.41.1h0a2.4,2.4,0,0,1-.13,3.41h0a2.26,2.26,0,0,1-1.64.64h0A2.51,2.51,0,0,1,5546.2,314.25Zm41.14-1.06h0a2.43,2.43,0,0,1,0-3.41h0a2.4,2.4,0,0,1,3.41,0h0a2.41,2.41,0,0,1,0,3.42h0a2.53,2.53,0,0,1-1.71.71h0A2.42,2.42,0,0,1,5587.33,313.19Zm-33.89-5.38a2.42,2.42,0,0,1,.55-3.38h0a2.43,2.43,0,0,1,3.38.55h0a2.46,2.46,0,0,1-.55,3.38h0a2.61,2.61,0,0,1-1.42.45h0A2.47,2.47,0,0,1,5553.45,307.81Zm26.93-.74h0a2.39,2.39,0,0,1-.55-3.35h0a2.43,2.43,0,0,1,3.38-.55h0a2.42,2.42,0,0,1,.55,3.38h0a2.47,2.47,0,0,1-2,1h0A2.36,2.36,0,0,1,5580.38,307.07Zm-18.84-4.57a2.46,2.46,0,0,1,1.35-3.16v0a2.44,2.44,0,0,1,3.16,1.36h0a2.41,2.41,0,0,1-1.39,3.12h0a2.07,2.07,0,0,1-.87.16h0A2.44,2.44,0,0,1,5561.53,302.5Zm11.08,0.61a2.46,2.46,0,0,1-1.74-3h0a2.42,2.42,0,0,1,3-1.71h0a2.42,2.42,0,0,1,1.74,2.93h0a2.44,2.44,0,0,1-2.35,1.81h0A3.68,3.68,0,0,1,5572.61,303.11Z" transform="translate(-5475.07 -216.9)"></path><path class="cls-3" d="M5552.2,319.82a2.83,2.83,0,0,1,1.1-3.83h0a2.8,2.8,0,0,1,3.83,1.06h0a2.85,2.85,0,0,1-1.1,3.87h0a2.87,2.87,0,0,1-1.35.32h0A2.85,2.85,0,0,1,5552.2,319.82Zm-10.37.19a2.46,2.46,0,0,1,1-3.33h0a2.43,2.43,0,0,1,3.32.92h0a2.47,2.47,0,0,1-1,3.35h0a2.49,2.49,0,0,1-1.17.28h0A2.47,2.47,0,0,1,5541.83,320Zm-13.39-.16a2,2,0,0,1,.77-2.68h0a2,2,0,0,1,2.68.74h0a2,2,0,0,1-.77,2.7h0a2,2,0,0,1-.94.23h0A2,2,0,0,1,5528.44,319.84Zm50.66-5.59a2.82,2.82,0,0,1-1.09-3.83h0a2.8,2.8,0,0,1,3.83-1.09h0a2.8,2.8,0,0,1,1.09,3.8h0a2.85,2.85,0,0,1-2.48,1.48h0A2.91,2.91,0,0,1,5579.1,314.25Zm-18.92-1.83a2.78,2.78,0,0,1,1.51-3.67v0a2.79,2.79,0,0,1,3.67,1.51h0a2.84,2.84,0,0,1-1.48,3.71h0a3.33,3.33,0,0,1-1.1.23h0A2.87,2.87,0,0,1,5560.18,312.42Zm11.27-.07a2.8,2.8,0,0,1-2.06-3.41h0a2.82,2.82,0,0,1,3.38-2.06h0a2.82,2.82,0,0,1,2.06,3.42h0a2.79,2.79,0,0,1-2.74,2.16h0A2.33,2.33,0,0,1,5571.45,312.35Z" transform="translate(-5475.07 -216.9)"></path><path class="cls-3" d="M5579.8,318.34a3.21,3.21,0,0,1,3.22-3.22h0a3.2,3.2,0,0,1,3.19,3.22h0a3.2,3.2,0,0,1-3.19,3.22h0A3.21,3.21,0,0,1,5579.8,318.34Zm-9.66,0a3.2,3.2,0,0,1,3.19-3.22h0a3.24,3.24,0,0,1,3.25,3.22h0a3.24,3.24,0,0,1-3.25,3.22h0A3.2,3.2,0,0,1,5570.13,318.34Zm-9.7,0a3.24,3.24,0,0,1,3.25-3.22h0a3.23,3.23,0,0,1,3.22,3.22h0a3.23,3.23,0,0,1-3.22,3.22h0A3.24,3.24,0,0,1,5560.44,318.34Z" transform="translate(-5475.07 -216.9)"></path></svg> 