<svg height="100" style="shape-rendering:geometricPrecision;text-rendering:geometricPrecision;image-rendering:optimizeQuality;fill-rule:evenodd;clip-rule:evenodd" viewBox="0 0 201 201" width="100" xml:space="preserve" xmlns="http://www.w3.org/2000/svg"><defs><style>.fil1{fill:#fefefe}</style></defs><g id="Layer_x0020_1"><g id="_541895288"><rect height="201" rx="19" ry="19" width="201" style="fill:#379ad0"/><path class="fil1" d="M39 102v60h29V80H39zM54 39c-8 0-15 7-15 15 0 7 7 14 15 14 7 0 14-7 14-14 0-8-7-15-14-15zM161 105c-2-15-9-25-30-25-12 0-20 5-24 11V80H84v82h24v-41c0-10 2-21 15-21s14 13 14 22v40h25v-45c0-4 0-8-1-12z"/></g></g></svg>