<?xml version="1.0" encoding="UTF-8"?> <svg xmlns="http://www.w3.org/2000/svg" viewBox="0 0 165.03 35.48"><defs><style>.cls-1{fill:#67839c;}</style></defs><title>logo_igenomix</title><g id="Capa_2" data-name="Capa 2"><g id="Capa_1-2" data-name="Capa 1"><rect class="cls-1" width="6.79" height="23.76"></rect><path class="cls-1" d="M42.65,5.09a10.37,10.37,0,0,0-5.3,1.27,8.16,8.16,0,0,0-3.24,3.45A10.85,10.85,0,0,0,33,14.71a10.41,10.41,0,0,0,1.13,4.9,8.14,8.14,0,0,0,3.48,3.44,12.17,12.17,0,0,0,5.85,1.28A16,16,0,0,0,47.06,24a13.68,13.68,0,0,0,2.53-.82,3.54,3.54,0,0,0,.95-.51l-1.73-5.09a6.23,6.23,0,0,1-.73.37,9.38,9.38,0,0,1-1.63.51,9.68,9.68,0,0,1-2.31.25,5.81,5.81,0,0,1-2.76-.6A2.41,2.41,0,0,1,40,16.41H51.57a16.11,16.11,0,0,0,.14-1.7,10,10,0,0,0-2.36-7.09,8.67,8.67,0,0,0-6.7-2.53M40,13a3.2,3.2,0,0,1,.65-2,2,2,0,0,1,1.68-.85,2.11,2.11,0,0,1,1.79.82,3.23,3.23,0,0,1,.62,2Z"></path><path class="cls-1" d="M69.25,6a6.68,6.68,0,0,0-3.4-.9,6.22,6.22,0,0,0-3,.73,4.94,4.94,0,0,0-2.12,2.1V5.66H54v18.1h6.79V14.14A2.75,2.75,0,0,1,61.52,12a2.55,2.55,0,0,1,1.79-.71,2.6,2.6,0,0,1,1.8.68,2.77,2.77,0,0,1,.74,2.15v9.62h6.79V13a9.39,9.39,0,0,0-.92-4.33A6.4,6.4,0,0,0,69.25,6"></path><path class="cls-1" d="M90.08,6.38a10.74,10.74,0,0,0-5.27-1.29,11.17,11.17,0,0,0-5.43,1.27,8.89,8.89,0,0,0-3.54,3.47,9.9,9.9,0,0,0-1.22,4.88,9.81,9.81,0,0,0,1.24,4.86,8.9,8.9,0,0,0,3.56,3.48,11,11,0,0,0,5.39,1.28A10.64,10.64,0,0,0,90.09,23,9.37,9.37,0,0,0,95,14.71a9.32,9.32,0,0,0-4.91-8.33M87.21,17.5a3.06,3.06,0,0,1-4.81,0,4.18,4.18,0,0,1-1-2.79,4.14,4.14,0,0,1,1-2.79,3.06,3.06,0,0,1,4.81,0,4.14,4.14,0,0,1,1,2.79,4.18,4.18,0,0,1-1,2.79"></path><path class="cls-1" d="M14.57,23.05A11,11,0,0,0,20,24.33,10.71,10.71,0,0,0,25.25,23a9.46,9.46,0,0,0,3.61-3.49,9.35,9.35,0,0,0,1.29-4.84,9.35,9.35,0,0,0-.8-3.85H32V5.08H20a11.12,11.12,0,0,0-5.43,1.27A8.8,8.8,0,0,0,11,9.83a9.79,9.79,0,0,0-1.22,4.88A9.71,9.71,0,0,0,11,19.57a8.81,8.81,0,0,0,3.55,3.48m3-11.13a3.06,3.06,0,0,1,4.81,0,4.16,4.16,0,0,1,1,2.79,4.18,4.18,0,0,1-1,2.79,3.06,3.06,0,0,1-4.81,0,4.18,4.18,0,0,1-1-2.79,4.16,4.16,0,0,1,1-2.79"></path><path class="cls-1" d="M120.06,5.09a7.66,7.66,0,0,0-6.3,2.79,5.44,5.44,0,0,0-2.1-2.08,6,6,0,0,0-2.92-.71,6.22,6.22,0,0,0-3,.73,5,5,0,0,0-2.12,2.1V5.66H96.86v18.1h6.79V14.14a2.78,2.78,0,0,1,.76-2.12,2.55,2.55,0,0,1,1.79-.71,1.73,1.73,0,0,1,1.48.66,3.65,3.65,0,0,1,.5,2.17v9.62H115V14.14a2.75,2.75,0,0,1,.76-2.12,2.53,2.53,0,0,1,1.78-.71A1.75,1.75,0,0,1,119,12a3.66,3.66,0,0,1,.49,2.17v9.62h6.79V13a8.94,8.94,0,0,0-1.71-5.89,5.64,5.64,0,0,0-4.51-2"></path><rect class="cls-1" x="129" y="5.65" width="6.79" height="18.11"></rect><polygon class="cls-1" points="152.09 14.14 157.75 5.66 150.67 5.66 147.84 10.18 145.01 5.66 137.94 5.66 143.6 14.14 137.38 23.76 144.45 23.76 147.84 18.67 151.24 23.76 158.31 23.76 152.09 14.14"></polygon><path class="cls-1" d="M19.42,28.72a5.88,5.88,0,0,1-4.68-2.32L10,31.2A12.63,12.63,0,0,0,32,23.7H25.24a5.88,5.88,0,0,1-5.82,5"></path><path class="cls-1" d="M161.78,8.29h.53a.49.49,0,0,0,.33-.11.37.37,0,0,0,.13-.28.37.37,0,0,0-.13-.3.52.52,0,0,0-.33-.1h-.53Zm.94,1.46-.63-.93h-.31v.93h-.53V7h1a1.1,1.1,0,0,1,.79.25.91.91,0,0,1,.27.68,1,1,0,0,1-.17.55.92.92,0,0,1-.47.34l.7,1Zm.65.6a2.3,2.3,0,0,0,.84-.83,2.33,2.33,0,0,0,.3-1.16,2.24,2.24,0,0,0-1.14-2,2.22,2.22,0,0,0-1.16-.31,2.18,2.18,0,0,0-1.15.31,2.23,2.23,0,0,0-.84.83,2.31,2.31,0,0,0-.3,1.16,2.33,2.33,0,0,0,.3,1.16,2.23,2.23,0,0,0,.84.83,2.28,2.28,0,0,0,1.15.31,2.31,2.31,0,0,0,1.16-.31m-2.58.44a2.86,2.86,0,0,1-1-3.86,2.75,2.75,0,0,1,1-1,3,3,0,0,1,2.87,0,2.82,2.82,0,0,1,1,1A2.77,2.77,0,0,1,165,8.36a2.8,2.8,0,0,1-.37,1.43,2.72,2.72,0,0,1-1,1,2.82,2.82,0,0,1-1.44.38,2.71,2.71,0,0,1-1.42-.39"></path></g></g></svg> 