<?xml version="1.0" encoding="UTF-8"?> <svg xmlns="http://www.w3.org/2000/svg" xmlns:xlink="http://www.w3.org/1999/xlink" id="Capa_1" data-name="Capa 1" viewBox="0 0 87.85 89.3"><defs><style>.cls-1{fill:none;}.cls-2{fill:#f7b79c;}.cls-3{clip-path:url(#clip-path);}.cls-4{fill:#66819b;}.cls-5{fill:#68839c;}.cls-6{fill:#69839c;}.cls-7{fill:#6a839c;}.cls-8{fill:#6b839c;}.cls-9{fill:#6d849c;}.cls-10{fill:#6e849c;}.cls-11{fill:#6f849c;}.cls-12{fill:#70859c;}.cls-13{fill:#71859c;}.cls-14{fill:#72859c;}.cls-15{fill:#73859c;}.cls-16{fill:#74869c;}.cls-17{fill:#75869c;}.cls-18{fill:#76869c;}.cls-19{fill:#78879d;}.cls-20{fill:#79889c;}.cls-21{fill:#7a889c;}.cls-22{fill:#7b889d;}.cls-23{fill:#7c889d;}.cls-24{fill:#7d899d;}.cls-25{fill:#7e899c;}.cls-26{fill:#7f8a9d;}.cls-27{fill:#808a9d;}.cls-28{fill:#818a9d;}.cls-29{fill:#828b9c;}.cls-30{fill:#838b9c;}.cls-31{fill:#848b9c;}.cls-32{fill:#858b9c;}.cls-33{fill:#868d9d;}.cls-34{fill:#878d9d;}.cls-35{fill:#888d9d;}.cls-36{fill:#898d9d;}.cls-37{fill:#8a8e9d;}.cls-38{fill:#8b8e9d;}.cls-39{fill:#8c8e9d;}.cls-40{fill:#8d8f9d;}.cls-41{fill:#8e8f9d;}.cls-42{fill:#8f8f9d;}.cls-43{fill:#90909d;}.cls-44{fill:#91909d;}.cls-45{fill:#92909d;}.cls-46{fill:#93919e;}.cls-47{fill:#94929e;}.cls-48{fill:#95929e;}.cls-49{fill:#96929d;}.cls-50{fill:#97929d;}.cls-51{fill:#98929d;}.cls-52{fill:#98939d;}.cls-53{fill:#99939d;}.cls-54{fill:#9b949d;}.cls-55{fill:#9c949d;}.cls-56{fill:#9d949d;}.cls-57{fill:#9e959d;}.cls-58{fill:#9f959d;}.cls-59{fill:#a0959d;}.cls-60{fill:#a1969e;}.cls-61{fill:#a2979e;}.cls-62{fill:#a3979e;}.cls-63{fill:#a4979d;}.cls-64{fill:#a5979d;}.cls-65{fill:#a6989d;}.cls-66{fill:#a7989e;}.cls-67{fill:#a8999e;}.cls-68{fill:#a9999d;}.cls-69{fill:#aa999d;}.cls-70{fill:#ab999d;}.cls-71{fill:#ab9a9d;}.cls-72{fill:#ac9a9d;}.cls-73{fill:#ad9a9d;}.cls-74{fill:#ae9b9e;}.cls-75{fill:#af9c9e;}.cls-76{fill:#b09c9e;}.cls-77{fill:#b19c9e;}.cls-78{fill:#b29c9d;}.cls-79{fill:#b39c9d;}.cls-80{fill:#b39d9d;}.cls-81{fill:#b69e9e;}.cls-82{fill:#b79e9e;}.cls-83{fill:#b89e9d;}.cls-84{fill:#b99f9d;}.cls-85{fill:#ba9f9d;}.cls-86{fill:#bca09e;}.cls-87{fill:#bda19e;}.cls-88{fill:#bea19e;}.cls-89{fill:#bfa19e;}.cls-90{fill:#c0a29e;}.cls-91{fill:#c0a29d;}.cls-92{fill:#c1a29d;}.cls-93{fill:#c3a39e;}.cls-94{fill:#c4a39e;}.cls-95{fill:#c5a39d;}.cls-96{fill:#c5a49d;}.cls-97{fill:#c6a49d;}.cls-98{fill:#c7a49d;}.cls-99{fill:#c8a59e;}.cls-100{fill:#c9a69e;}.cls-101{fill:#caa69e;}.cls-102{fill:#cba69e;}.cls-103{fill:#cca69e;}.cls-104{fill:#cda79e;}.cls-105{fill:#cea79e;}.cls-106{fill:#cfa89e;}.cls-107{fill:#d0a89e;}.cls-108{fill:#d1a89e;}.cls-109{fill:#d2a89d;}.cls-110{fill:#d2a99d;}.cls-111{fill:#d3a99d;}.cls-112{fill:#d5aa9e;}.cls-113{fill:#d5ab9e;}.cls-114{fill:#d6ab9d;}.cls-115{fill:#d7ab9d;}.cls-116{fill:#d8ab9d;}.cls-117{fill:#d8ac9e;}.cls-118{fill:#d9ac9e;}.cls-119{fill:#daac9d;}.cls-120{fill:#dbad9d;}.cls-121{fill:#dcad9d;}.cls-122{fill:#ddad9d;}.cls-123{fill:#dead9d;}.cls-124{fill:#dfae9d;}.cls-125{fill:#e0af9e;}.cls-126{fill:#e1af9e;}.cls-127{fill:#e1b09e;}.cls-128{fill:#e2b09e;}.cls-129{fill:#e3b09d;}.cls-130{fill:#e4b09d;}.cls-131{fill:#e5b19d;}.cls-132{fill:#e6b19e;}.cls-133{fill:#e7b29d;}.cls-134{fill:#e8b29d;}.cls-135{fill:#e9b29d;}.cls-136{fill:#eab29d;}.cls-137{fill:#ebb39c;}.cls-138{fill:#ecb49d;}.cls-139{fill:#edb49d;}.cls-140{fill:#eeb49d;}.cls-141{fill:#eeb59d;}.cls-142{fill:#efb59d;}.cls-143{fill:#f0b59d;}.cls-144{fill:#f1b59d;}.cls-145{fill:#f2b69d;}.cls-146{fill:#f3b69d;}.cls-147{fill:#f3b69c;}.cls-148{fill:#f4b79c;}.cls-149{fill:#f5b79c;}.cls-150{fill:#f6b79c;}.cls-151{fill:url(#Degradado_sin_nombre_4);}.cls-152{fill:#fff;}</style><clipPath id="clip-path" transform="translate(-12072.14 -1756.42)"><path class="cls-1" d="M12075.14,1766.07h69.6a3,3,0,0,1,3,3v9.87a0,0,0,0,1,0,0h-75.6a0,0,0,0,1,0,0v-9.87A3,3,0,0,1,12075.14,1766.07Z"></path></clipPath><radialGradient id="Degradado_sin_nombre_4" cx="35.04" cy="50.84" r="30.37" gradientUnits="userSpaceOnUse"><stop offset="0" stop-color="#66819b"></stop><stop offset="1" stop-color="#f7b79c"></stop></radialGradient></defs><title>logo-29</title><path class="cls-2" d="M12137.46,1840.68h-51.92c-6.44,0-13.26-6.9-13.26-13.42V1779.1h2.09v48.15c0,5.4,5.85,11.33,11.17,11.33h51.92c5.11,0,8.16-5.76,8.16-11.33v-48.79h2.09v48.79C12147.71,1833.85,12143.88,1840.68,12137.46,1840.68Z" transform="translate(-12072.14 -1756.42)"></path><g class="cls-3"><path class="cls-4" d="M12072.14,1766.07v0Z" transform="translate(-12072.14 -1756.42)"></path><rect class="cls-4" y="9.65" width="0.47" height="12.87"></rect><rect class="cls-5" x="0.47" y="9.65" width="0.47" height="12.87"></rect><rect class="cls-6" x="0.93" y="9.65" width="0.47" height="12.87"></rect><rect class="cls-7" x="1.4" y="9.65" width="0.47" height="12.87"></rect><rect class="cls-8" x="1.87" y="9.65" width="0.47" height="12.87"></rect><rect class="cls-9" x="2.33" y="9.65" width="0.47" height="12.87"></rect><rect class="cls-10" x="2.8" y="9.65" width="0.47" height="12.87"></rect><rect class="cls-11" x="3.27" y="9.65" width="0.47" height="12.87"></rect><rect class="cls-12" x="3.73" y="9.65" width="0.47" height="12.87"></rect><rect class="cls-13" x="4.2" y="9.65" width="0.47" height="12.87"></rect><rect class="cls-14" x="4.67" y="9.65" width="0.47" height="12.87"></rect><rect class="cls-15" x="5.13" y="9.65" width="0.47" height="12.87"></rect><rect class="cls-16" x="5.6" y="9.65" width="0.47" height="12.87"></rect><rect class="cls-17" x="6.07" y="9.65" width="0.47" height="12.87"></rect><rect class="cls-18" x="6.53" y="9.65" width="0.47" height="12.87"></rect><rect class="cls-19" x="7" y="9.65" width="0.47" height="12.87"></rect><rect class="cls-20" x="7.47" y="9.65" width="0.47" height="12.87"></rect><rect class="cls-21" x="7.93" y="9.65" width="0.47" height="12.87"></rect><rect class="cls-22" x="8.4" y="9.65" width="0.47" height="12.87"></rect><rect class="cls-23" x="8.87" y="9.65" width="0.47" height="12.87"></rect><rect class="cls-24" x="9.33" y="9.65" width="0.47" height="12.87"></rect><rect class="cls-25" x="9.8" y="9.65" width="0.47" height="12.87"></rect><rect class="cls-26" x="10.27" y="9.65" width="0.47" height="12.87"></rect><rect class="cls-27" x="10.73" y="9.65" width="0.47" height="12.87"></rect><rect class="cls-27" x="11.2" y="9.65" width="0.47" height="12.87"></rect><rect class="cls-28" x="11.67" y="9.65" width="0.47" height="12.87"></rect><rect class="cls-29" x="12.13" y="9.65" width="0.47" height="12.87"></rect><rect class="cls-30" x="12.6" y="9.65" width="0.47" height="12.87"></rect><rect class="cls-31" x="13.07" y="9.65" width="0.47" height="12.87"></rect><rect class="cls-32" x="13.53" y="9.65" width="0.47" height="12.87"></rect><rect class="cls-33" x="14" y="9.65" width="0.47" height="12.87"></rect><rect class="cls-34" x="14.47" y="9.65" width="0.47" height="12.87"></rect><rect class="cls-35" x="14.93" y="9.65" width="0.47" height="12.87"></rect><rect class="cls-36" x="15.4" y="9.65" width="0.47" height="12.87"></rect><rect class="cls-37" x="15.87" y="9.65" width="0.47" height="12.87"></rect><rect class="cls-38" x="16.33" y="9.65" width="0.47" height="12.87"></rect><rect class="cls-39" x="16.8" y="9.65" width="0.47" height="12.87"></rect><rect class="cls-40" x="17.27" y="9.65" width="0.47" height="12.87"></rect><rect class="cls-41" x="17.73" y="9.65" width="0.47" height="12.87"></rect><rect class="cls-42" x="18.2" y="9.65" width="0.47" height="12.87"></rect><rect class="cls-42" x="18.67" y="9.65" width="0.47" height="12.87"></rect><rect class="cls-43" x="19.13" y="9.65" width="0.47" height="12.87"></rect><rect class="cls-44" x="19.6" y="9.65" width="0.47" height="12.87"></rect><rect class="cls-45" x="20.07" y="9.65" width="0.47" height="12.87"></rect><rect class="cls-46" x="20.53" y="9.65" width="0.47" height="12.87"></rect><rect class="cls-47" x="21" y="9.65" width="0.47" height="12.87"></rect><rect class="cls-48" x="21.47" y="9.65" width="0.47" height="12.87"></rect><rect class="cls-49" x="21.93" y="9.65" width="0.47" height="12.87"></rect><rect class="cls-50" x="22.4" y="9.65" width="0.47" height="12.87"></rect><rect class="cls-51" x="22.87" y="9.65" width="0.47" height="12.87"></rect><rect class="cls-52" x="23.33" y="9.65" width="0.47" height="12.87"></rect><rect class="cls-53" x="23.8" y="9.65" width="0.47" height="12.87"></rect><rect class="cls-54" x="24.27" y="9.65" width="0.47" height="12.87"></rect><rect class="cls-55" x="24.73" y="9.65" width="0.47" height="12.87"></rect><rect class="cls-55" x="25.2" y="9.65" width="0.47" height="12.87"></rect><rect class="cls-56" x="25.67" y="9.65" width="0.47" height="12.87"></rect><rect class="cls-57" x="26.13" y="9.65" width="0.47" height="12.87"></rect><rect class="cls-58" x="26.6" y="9.65" width="0.47" height="12.87"></rect><rect class="cls-59" x="27.07" y="9.65" width="0.47" height="12.87"></rect><rect class="cls-60" x="27.53" y="9.65" width="0.47" height="12.87"></rect><rect class="cls-61" x="28" y="9.65" width="0.47" height="12.87"></rect><rect class="cls-62" x="28.47" y="9.65" width="0.47" height="12.87"></rect><rect class="cls-62" x="28.93" y="9.65" width="0.47" height="12.87"></rect><rect class="cls-63" x="29.4" y="9.65" width="0.47" height="12.87"></rect><rect class="cls-64" x="29.87" y="9.65" width="0.47" height="12.87"></rect><rect class="cls-65" x="30.33" y="9.65" width="0.47" height="12.87"></rect><rect class="cls-66" x="30.8" y="9.65" width="0.47" height="12.87"></rect><rect class="cls-67" x="31.27" y="9.65" width="0.47" height="12.87"></rect><rect class="cls-68" x="31.73" y="9.65" width="0.47" height="12.87"></rect><rect class="cls-69" x="32.2" y="9.65" width="0.47" height="12.87"></rect><rect class="cls-70" x="32.67" y="9.65" width="0.47" height="12.87"></rect><rect class="cls-71" x="33.13" y="9.65" width="0.47" height="12.87"></rect><rect class="cls-72" x="33.6" y="9.65" width="0.47" height="12.87"></rect><rect class="cls-73" x="34.07" y="9.65" width="0.47" height="12.87"></rect><rect class="cls-74" x="34.53" y="9.65" width="0.47" height="12.87"></rect><rect class="cls-75" x="35" y="9.65" width="0.47" height="12.87"></rect><rect class="cls-76" x="35.47" y="9.65" width="0.47" height="12.87"></rect><rect class="cls-77" x="35.93" y="9.65" width="0.47" height="12.87"></rect><rect class="cls-78" x="36.4" y="9.65" width="0.47" height="12.87"></rect><rect class="cls-79" x="36.87" y="9.65" width="0.47" height="12.87"></rect><rect class="cls-80" x="37.33" y="9.65" width="0.47" height="12.87"></rect><rect class="cls-81" x="37.8" y="9.65" width="0.47" height="12.87"></rect><rect class="cls-81" x="38.27" y="9.65" width="0.47" height="12.87"></rect><rect class="cls-82" x="38.73" y="9.65" width="0.47" height="12.87"></rect><rect class="cls-83" x="39.2" y="9.65" width="0.47" height="12.87"></rect><rect class="cls-84" x="39.67" y="9.65" width="0.47" height="12.87"></rect><rect class="cls-85" x="40.13" y="9.65" width="0.47" height="12.87"></rect><rect class="cls-85" x="40.6" y="9.65" width="0.47" height="12.87"></rect><rect class="cls-86" x="41.07" y="9.65" width="0.47" height="12.87"></rect><rect class="cls-87" x="41.53" y="9.65" width="0.47" height="12.87"></rect><rect class="cls-87" x="42" y="9.65" width="0.47" height="12.87"></rect><rect class="cls-88" x="42.47" y="9.65" width="0.47" height="12.87"></rect><rect class="cls-89" x="42.93" y="9.65" width="0.47" height="12.87"></rect><rect class="cls-90" x="43.4" y="9.65" width="0.47" height="12.87"></rect><rect class="cls-91" x="43.87" y="9.65" width="0.47" height="12.87"></rect><rect class="cls-92" x="44.33" y="9.65" width="0.47" height="12.87"></rect><rect class="cls-93" x="44.8" y="9.65" width="0.47" height="12.87"></rect><rect class="cls-93" x="45.27" y="9.65" width="0.47" height="12.87"></rect><rect class="cls-94" x="45.73" y="9.65" width="0.47" height="12.87"></rect><rect class="cls-95" x="46.2" y="9.65" width="0.47" height="12.87"></rect><rect class="cls-96" x="46.67" y="9.65" width="0.47" height="12.87"></rect><rect class="cls-97" x="47.13" y="9.65" width="0.47" height="12.87"></rect><rect class="cls-98" x="47.6" y="9.65" width="0.47" height="12.87"></rect><rect class="cls-99" x="48.07" y="9.65" width="0.47" height="12.87"></rect><rect class="cls-100" x="48.53" y="9.65" width="0.47" height="12.87"></rect><rect class="cls-101" x="49" y="9.65" width="0.47" height="12.87"></rect><rect class="cls-101" x="49.47" y="9.65" width="0.47" height="12.87"></rect><rect class="cls-102" x="49.93" y="9.65" width="0.47" height="12.87"></rect><rect class="cls-103" x="50.4" y="9.65" width="0.47" height="12.87"></rect><rect class="cls-104" x="50.86" y="9.65" width="0.47" height="12.87"></rect><rect class="cls-105" x="51.33" y="9.65" width="0.47" height="12.87"></rect><rect class="cls-106" x="51.8" y="9.65" width="0.47" height="12.87"></rect><rect class="cls-106" x="52.26" y="9.65" width="0.47" height="12.87"></rect><rect class="cls-107" x="52.73" y="9.65" width="0.47" height="12.87"></rect><rect class="cls-108" x="53.2" y="9.65" width="0.47" height="12.87"></rect><rect class="cls-109" x="53.66" y="9.65" width="0.47" height="12.87"></rect><rect class="cls-110" x="54.13" y="9.65" width="0.47" height="12.87"></rect><rect class="cls-111" x="54.6" y="9.65" width="0.47" height="12.87"></rect><rect class="cls-112" x="55.06" y="9.65" width="0.47" height="12.87"></rect><rect class="cls-113" x="55.53" y="9.65" width="0.47" height="12.87"></rect><rect class="cls-114" x="56" y="9.65" width="0.47" height="12.87"></rect><rect class="cls-115" x="56.46" y="9.65" width="0.47" height="12.87"></rect><rect class="cls-116" x="56.93" y="9.65" width="0.47" height="12.87"></rect><rect class="cls-117" x="57.4" y="9.65" width="0.47" height="12.87"></rect><rect class="cls-118" x="57.86" y="9.65" width="0.47" height="12.87"></rect><rect class="cls-119" x="58.33" y="9.65" width="0.47" height="12.87"></rect><rect class="cls-120" x="58.8" y="9.65" width="0.47" height="12.87"></rect><rect class="cls-121" x="59.26" y="9.65" width="0.47" height="12.87"></rect><rect class="cls-122" x="59.73" y="9.65" width="0.47" height="12.87"></rect><rect class="cls-122" x="60.2" y="9.65" width="0.47" height="12.87"></rect><rect class="cls-123" x="60.66" y="9.65" width="0.47" height="12.87"></rect><rect class="cls-124" x="61.13" y="9.65" width="0.47" height="12.87"></rect><rect class="cls-125" x="61.6" y="9.65" width="0.47" height="12.87"></rect><rect class="cls-126" x="62.06" y="9.65" width="0.47" height="12.87"></rect><rect class="cls-127" x="62.53" y="9.65" width="0.47" height="12.87"></rect><rect class="cls-128" x="63" y="9.65" width="0.47" height="12.87"></rect><rect class="cls-129" x="63.46" y="9.65" width="0.47" height="12.87"></rect><rect class="cls-130" x="63.93" y="9.65" width="0.47" height="12.87"></rect><rect class="cls-130" x="64.4" y="9.65" width="0.47" height="12.87"></rect><rect class="cls-131" x="64.86" y="9.65" width="0.47" height="12.87"></rect><rect class="cls-132" x="65.33" y="9.65" width="0.47" height="12.87"></rect><rect class="cls-133" x="65.8" y="9.65" width="0.47" height="12.87"></rect><rect class="cls-134" x="66.26" y="9.65" width="0.47" height="12.87"></rect><rect class="cls-135" x="66.73" y="9.65" width="0.47" height="12.87"></rect><rect class="cls-135" x="67.2" y="9.65" width="0.47" height="12.87"></rect><rect class="cls-136" x="67.66" y="9.65" width="0.47" height="12.87"></rect><rect class="cls-137" x="68.13" y="9.65" width="0.47" height="12.87"></rect><rect class="cls-138" x="68.6" y="9.65" width="0.47" height="12.87"></rect><rect class="cls-139" x="69.06" y="9.65" width="0.47" height="12.87"></rect><rect class="cls-140" x="69.53" y="9.65" width="0.47" height="12.87"></rect><rect class="cls-141" x="70" y="9.65" width="0.47" height="12.87"></rect><rect class="cls-142" x="70.46" y="9.65" width="0.47" height="12.87"></rect><rect class="cls-143" x="70.93" y="9.65" width="0.47" height="12.87"></rect><rect class="cls-144" x="71.4" y="9.65" width="0.47" height="12.87"></rect><rect class="cls-145" x="71.86" y="9.65" width="0.47" height="12.87"></rect><rect class="cls-146" x="72.33" y="9.65" width="0.47" height="12.87"></rect><rect class="cls-147" x="72.8" y="9.65" width="0.47" height="12.87"></rect><rect class="cls-148" x="73.26" y="9.65" width="0.47" height="12.87"></rect><rect class="cls-149" x="73.73" y="9.65" width="0.47" height="12.87"></rect><rect class="cls-149" x="74.2" y="9.65" width="0.47" height="12.87"></rect><rect class="cls-150" x="74.66" y="9.65" width="0.47" height="12.87"></rect><rect class="cls-2" x="75.13" y="9.65" width="0.47" height="12.87"></rect><path class="cls-2" d="M12147.74,1778.93v0Z" transform="translate(-12072.14 -1756.42)"></path></g><rect class="cls-4" x="13.94" width="4.56" height="15.55" rx="0.89" ry="0.89"></rect><rect class="cls-4" x="55.09" width="4.56" height="15.55" rx="0.89" ry="0.89"></rect><circle class="cls-151" cx="4.66" cy="24.55" r="0.69"></circle><circle class="cls-151" cx="8.84" cy="24.55" r="0.91"></circle><circle class="cls-151" cx="13.02" cy="24.55" r="1.07"></circle><circle class="cls-151" cx="17.19" cy="24.55" r="1.2"></circle><circle class="cls-151" cx="21.37" cy="24.55" r="1.33"></circle><circle class="cls-151" cx="25.54" cy="24.55" r="1.41"></circle><circle class="cls-151" cx="29.72" cy="24.55" r="1.47"></circle><circle class="cls-151" cx="33.9" cy="24.55" r="1.49"></circle><circle class="cls-151" cx="38.07" cy="24.55" r="1.51"></circle><circle class="cls-151" cx="42.25" cy="24.55" r="1.49"></circle><circle class="cls-151" cx="46.42" cy="24.55" r="1.46"></circle><circle class="cls-151" cx="50.6" cy="24.55" r="1.39"></circle><circle class="cls-151" cx="54.78" cy="24.55" r="1.29"></circle><circle class="cls-151" cx="58.95" cy="24.55" r="1.14"></circle><circle class="cls-151" cx="63.13" cy="24.55" r="0.99"></circle><circle class="cls-151" cx="67.3" cy="24.55" r="0.78"></circle><circle class="cls-151" cx="71.48" cy="24.55" r="0.53"></circle><circle class="cls-151" cx="4.66" cy="29.98" r="0.69"></circle><circle class="cls-151" cx="8.84" cy="29.98" r="0.91"></circle><circle class="cls-151" cx="13.02" cy="29.98" r="1.07"></circle><circle class="cls-151" cx="17.19" cy="29.98" r="1.2"></circle><circle class="cls-151" cx="21.37" cy="29.98" r="1.33"></circle><circle class="cls-151" cx="25.54" cy="29.98" r="1.41"></circle><circle class="cls-151" cx="29.72" cy="29.98" r="1.47"></circle><circle class="cls-151" cx="33.9" cy="29.98" r="1.49"></circle><circle class="cls-151" cx="38.07" cy="29.98" r="1.51"></circle><circle class="cls-151" cx="42.25" cy="29.98" r="1.49"></circle><circle class="cls-151" cx="46.42" cy="29.98" r="1.46"></circle><circle class="cls-151" cx="50.6" cy="29.98" r="1.39"></circle><circle class="cls-151" cx="54.78" cy="29.98" r="1.29"></circle><circle class="cls-151" cx="58.95" cy="29.98" r="1.14"></circle><circle class="cls-151" cx="63.13" cy="29.98" r="0.99"></circle><circle class="cls-151" cx="67.3" cy="29.98" r="0.78"></circle><circle class="cls-151" cx="71.48" cy="29.98" r="0.53"></circle><circle class="cls-151" cx="4.66" cy="35.4" r="0.69"></circle><circle class="cls-151" cx="8.84" cy="35.4" r="0.91"></circle><circle class="cls-151" cx="13.02" cy="35.4" r="1.07"></circle><circle class="cls-151" cx="17.19" cy="35.4" r="1.2"></circle><circle class="cls-151" cx="21.37" cy="35.4" r="1.33"></circle><circle class="cls-151" cx="25.54" cy="35.4" r="1.41"></circle><circle class="cls-151" cx="29.72" cy="35.4" r="1.47"></circle><circle class="cls-151" cx="33.9" cy="35.4" r="1.49"></circle><circle class="cls-151" cx="38.07" cy="35.4" r="1.51"></circle><circle class="cls-151" cx="42.25" cy="35.4" r="1.49"></circle><circle class="cls-151" cx="46.42" cy="35.4" r="1.46"></circle><circle class="cls-151" cx="50.6" cy="35.4" r="1.39"></circle><circle class="cls-151" cx="54.78" cy="35.4" r="1.29"></circle><circle class="cls-151" cx="58.95" cy="35.4" r="1.14"></circle><circle class="cls-151" cx="63.13" cy="35.4" r="0.99"></circle><circle class="cls-151" cx="67.3" cy="35.4" r="0.78"></circle><circle class="cls-151" cx="71.48" cy="35.4" r="0.53"></circle><circle class="cls-151" cx="4.66" cy="40.82" r="0.69"></circle><circle class="cls-151" cx="8.84" cy="40.82" r="0.91"></circle><circle class="cls-151" cx="13.02" cy="40.82" r="1.07"></circle><circle class="cls-151" cx="17.19" cy="40.82" r="1.2"></circle><circle class="cls-151" cx="21.37" cy="40.82" r="1.33"></circle><circle class="cls-151" cx="25.54" cy="40.82" r="1.41"></circle><circle class="cls-151" cx="29.72" cy="40.82" r="1.47"></circle><circle class="cls-151" cx="33.9" cy="40.82" r="1.49"></circle><circle class="cls-151" cx="38.07" cy="40.82" r="1.51"></circle><circle class="cls-151" cx="42.25" cy="40.82" r="1.49"></circle><circle class="cls-151" cx="46.42" cy="40.82" r="1.46"></circle><circle class="cls-151" cx="50.6" cy="40.82" r="1.39"></circle><circle class="cls-151" cx="54.78" cy="40.82" r="1.29"></circle><circle class="cls-151" cx="58.95" cy="40.82" r="1.14"></circle><circle class="cls-151" cx="63.13" cy="40.82" r="0.99"></circle><circle class="cls-151" cx="67.3" cy="40.82" r="0.78"></circle><circle class="cls-151" cx="71.48" cy="40.82" r="0.53"></circle><circle class="cls-151" cx="4.66" cy="46.24" r="0.69"></circle><circle class="cls-151" cx="8.84" cy="46.24" r="0.91"></circle><circle class="cls-151" cx="13.02" cy="46.24" r="1.07"></circle><circle class="cls-151" cx="17.19" cy="46.24" r="1.2"></circle><circle class="cls-151" cx="21.37" cy="46.24" r="1.33"></circle><circle class="cls-151" cx="25.54" cy="46.24" r="1.41"></circle><circle class="cls-151" cx="29.72" cy="46.24" r="1.47"></circle><circle class="cls-151" cx="33.9" cy="46.24" r="1.49"></circle><circle class="cls-151" cx="38.07" cy="46.24" r="1.51"></circle><circle class="cls-151" cx="42.25" cy="46.24" r="1.49"></circle><circle class="cls-151" cx="46.42" cy="46.24" r="1.46"></circle><circle class="cls-151" cx="50.6" cy="46.24" r="1.39"></circle><circle class="cls-151" cx="54.78" cy="46.24" r="1.29"></circle><circle class="cls-151" cx="58.95" cy="46.24" r="1.14"></circle><circle class="cls-151" cx="63.13" cy="46.24" r="0.99"></circle><circle class="cls-151" cx="67.3" cy="46.24" r="0.78"></circle><circle class="cls-151" cx="71.48" cy="46.24" r="0.53"></circle><circle class="cls-151" cx="4.66" cy="51.66" r="0.69"></circle><circle class="cls-151" cx="8.84" cy="51.66" r="0.91"></circle><circle class="cls-151" cx="13.02" cy="51.66" r="1.07"></circle><circle class="cls-151" cx="17.19" cy="51.66" r="1.2"></circle><circle class="cls-151" cx="21.37" cy="51.66" r="1.33"></circle><circle class="cls-151" cx="25.54" cy="51.66" r="1.41"></circle><circle class="cls-151" cx="29.72" cy="51.66" r="1.47"></circle><circle class="cls-151" cx="33.9" cy="51.66" r="1.49"></circle><circle class="cls-151" cx="38.07" cy="51.66" r="1.51"></circle><circle class="cls-151" cx="42.25" cy="51.66" r="1.49"></circle><circle class="cls-151" cx="46.42" cy="51.66" r="1.46"></circle><circle class="cls-151" cx="50.6" cy="51.66" r="1.39"></circle><circle class="cls-151" cx="54.78" cy="51.66" r="1.29"></circle><circle class="cls-151" cx="58.95" cy="51.66" r="1.14"></circle><circle class="cls-151" cx="63.13" cy="51.66" r="0.99"></circle><circle class="cls-151" cx="67.3" cy="51.66" r="0.78"></circle><circle class="cls-151" cx="71.48" cy="51.66" r="0.53"></circle><circle class="cls-151" cx="4.66" cy="57.08" r="0.69"></circle><circle class="cls-151" cx="8.84" cy="57.08" r="0.91"></circle><circle class="cls-151" cx="13.02" cy="57.08" r="1.07"></circle><circle class="cls-151" cx="17.19" cy="57.08" r="1.2"></circle><circle class="cls-151" cx="21.37" cy="57.08" r="1.33"></circle><circle class="cls-151" cx="25.54" cy="57.08" r="1.41"></circle><circle class="cls-151" cx="29.72" cy="57.08" r="1.47"></circle><circle class="cls-151" cx="33.9" cy="57.08" r="1.49"></circle><circle class="cls-151" cx="38.07" cy="57.08" r="1.51"></circle><circle class="cls-151" cx="42.25" cy="57.08" r="1.49"></circle><circle class="cls-151" cx="46.42" cy="57.08" r="1.46"></circle><circle class="cls-151" cx="50.6" cy="57.08" r="1.39"></circle><circle class="cls-151" cx="54.78" cy="57.08" r="1.29"></circle><circle class="cls-151" cx="58.95" cy="57.08" r="1.14"></circle><circle class="cls-151" cx="63.13" cy="57.08" r="0.99"></circle><circle class="cls-151" cx="67.3" cy="57.08" r="0.78"></circle><circle class="cls-151" cx="71.48" cy="57.08" r="0.53"></circle><circle class="cls-151" cx="4.66" cy="62.5" r="0.69"></circle><circle class="cls-151" cx="8.84" cy="62.5" r="0.91"></circle><circle class="cls-151" cx="13.02" cy="62.5" r="1.07"></circle><circle class="cls-151" cx="17.19" cy="62.5" r="1.2"></circle><circle class="cls-151" cx="21.37" cy="62.5" r="1.33"></circle><circle class="cls-151" cx="25.54" cy="62.5" r="1.41"></circle><circle class="cls-151" cx="29.72" cy="62.5" r="1.47"></circle><circle class="cls-151" cx="33.9" cy="62.5" r="1.49"></circle><circle class="cls-151" cx="38.07" cy="62.5" r="1.51"></circle><circle class="cls-151" cx="42.25" cy="62.5" r="1.49"></circle><circle class="cls-151" cx="46.42" cy="62.5" r="1.46"></circle><circle class="cls-151" cx="50.6" cy="62.5" r="1.39"></circle><circle class="cls-151" cx="54.78" cy="62.5" r="1.29"></circle><circle class="cls-151" cx="58.95" cy="62.5" r="1.14"></circle><circle class="cls-151" cx="63.13" cy="62.5" r="0.99"></circle><circle class="cls-151" cx="67.3" cy="62.5" r="0.78"></circle><circle class="cls-151" cx="71.48" cy="62.5" r="0.53"></circle><circle class="cls-151" cx="4.66" cy="67.92" r="0.69"></circle><circle class="cls-151" cx="8.84" cy="67.92" r="0.91"></circle><circle class="cls-151" cx="13.02" cy="67.92" r="1.07"></circle><circle class="cls-151" cx="17.19" cy="67.92" r="1.2"></circle><circle class="cls-151" cx="21.37" cy="67.92" r="1.33"></circle><circle class="cls-151" cx="25.54" cy="67.92" r="1.41"></circle><circle class="cls-151" cx="29.72" cy="67.92" r="1.47"></circle><circle class="cls-151" cx="33.9" cy="67.92" r="1.49"></circle><circle class="cls-151" cx="38.07" cy="67.92" r="1.51"></circle><circle class="cls-151" cx="42.25" cy="67.92" r="1.49"></circle><circle class="cls-151" cx="46.42" cy="67.92" r="1.46"></circle><circle class="cls-151" cx="50.6" cy="67.92" r="1.39"></circle><circle class="cls-151" cx="54.78" cy="67.92" r="1.29"></circle><circle class="cls-151" cx="58.95" cy="67.92" r="1.14"></circle><circle class="cls-151" cx="63.13" cy="67.92" r="0.99"></circle><circle class="cls-151" cx="67.3" cy="67.92" r="0.78"></circle><circle class="cls-151" cx="71.48" cy="67.92" r="0.53"></circle><circle class="cls-151" cx="4.66" cy="73.34" r="0.69"></circle><circle class="cls-151" cx="8.84" cy="73.34" r="0.91"></circle><circle class="cls-151" cx="13.02" cy="73.34" r="1.07"></circle><circle class="cls-151" cx="17.19" cy="73.34" r="1.2"></circle><circle class="cls-151" cx="21.37" cy="73.34" r="1.33"></circle><circle class="cls-151" cx="25.54" cy="73.34" r="1.41"></circle><circle class="cls-151" cx="29.72" cy="73.34" r="1.47"></circle><circle class="cls-151" cx="33.9" cy="73.34" r="1.49"></circle><circle class="cls-151" cx="38.07" cy="73.34" r="1.51"></circle><circle class="cls-151" cx="42.25" cy="73.34" r="1.49"></circle><circle class="cls-151" cx="46.42" cy="73.34" r="1.46"></circle><circle class="cls-151" cx="50.6" cy="73.34" r="1.39"></circle><circle class="cls-151" cx="54.78" cy="73.34" r="1.29"></circle><circle class="cls-151" cx="58.95" cy="73.34" r="1.14"></circle><circle class="cls-151" cx="63.13" cy="73.34" r="0.99"></circle><circle class="cls-151" cx="67.3" cy="73.34" r="0.78"></circle><circle class="cls-151" cx="71.48" cy="73.34" r="0.53"></circle><circle class="cls-151" cx="4.66" cy="78.76" r="0.69"></circle><circle class="cls-151" cx="8.84" cy="78.76" r="0.91"></circle><circle class="cls-151" cx="13.02" cy="78.76" r="1.07"></circle><circle class="cls-151" cx="17.19" cy="78.76" r="1.2"></circle><circle class="cls-151" cx="21.37" cy="78.76" r="1.33"></circle><circle class="cls-151" cx="25.54" cy="78.76" r="1.41"></circle><circle class="cls-151" cx="29.72" cy="78.76" r="1.47"></circle><circle class="cls-151" cx="33.9" cy="78.76" r="1.49"></circle><circle class="cls-151" cx="38.07" cy="78.76" r="1.51"></circle><circle class="cls-151" cx="42.25" cy="78.76" r="1.49"></circle><circle class="cls-151" cx="46.42" cy="78.76" r="1.46"></circle><circle class="cls-151" cx="50.6" cy="78.76" r="1.39"></circle><circle class="cls-151" cx="54.78" cy="78.76" r="1.29"></circle><circle class="cls-151" cx="58.95" cy="78.76" r="1.14"></circle><circle class="cls-151" cx="63.13" cy="78.76" r="0.99"></circle><circle class="cls-151" cx="67.3" cy="78.76" r="0.78"></circle><circle class="cls-151" cx="71.48" cy="78.76" r="0.53"></circle><circle class="cls-4" cx="70.71" cy="72.15" r="17.14"></circle><path class="cls-152" d="M12139.76,1835h-0.09a1,1,0,0,1-.78-0.47l-3.72-5.67a1,1,0,0,1,1.75-1.15l3,4.57,10.08-10.56a1,1,0,1,1,1.51,1.44l-11,11.51A1,1,0,0,1,12139.76,1835Z" transform="translate(-12072.14 -1756.42)"></path></svg> 